<svg width="96" height="60" viewBox="0 0 96 60" fill="none" xmlns="http://www.w3.org/2000/svg">
<g clip-path="url(#clip0_192_36)">
<path fill-rule="evenodd" clip-rule="evenodd" d="M66.7458 0.330441C66.33 -0.110147 65.67 -0.110147 65.2542 0.330441L36.3287 30.9824C35.6362 31.7163 36.1107 33 37.0745 33H45V59C45 59.5523 45.4477 60 46 60H86C86.5523 60 87 59.5523 87 59V33H94.9255C95.8893 33 96.3638 31.7163 95.6713 30.9824L66.7458 0.330441Z" fill="#FFF5EA"/>
<mask id="mask0_192_36" style="mask-type:luminance" maskUnits="userSpaceOnUse" x="36" y="0" width="60" height="60">
<path d="M45.5 32.5V33V59C45.5 59.2762 45.7238 59.5 46 59.5H86C86.2761 59.5 86.5 59.2762 86.5 59V33V32.5H87H94.9255C95.1563 32.5 95.3549 32.3517 95.4505 32.0931C95.5465 31.8333 95.506 31.5357 95.3076 31.3255L66.3821 0.673617C66.3821 0.673613 66.3821 0.673609 66.3821 0.673605C66.1637 0.442132 65.8363 0.442132 65.6178 0.673605L45.5 32.5ZM45.5 32.5H45H37.0745C36.8436 32.5 36.6451 32.3517 36.5495 32.0931C36.4534 31.8333 36.494 31.5358 36.6923 31.3256C36.6923 31.3256 36.6923 31.3256 36.6923 31.3255L65.6178 0.673617L45.5 32.5Z" fill="white" stroke="#FFF5EA"/>
</mask>
<g mask="url(#mask0_192_36)">
<mask id="path-3-inside-1_192_36" fill="white">
<path d="M44.9999 33H45.9999V32H44.9999V33ZM86.9999 33V32H85.9999V33H86.9999ZM65.9814 1.01677C65.9939 1.00351 66.0017 1.00019 66.0024 0.999883C66.0035 0.999383 66.0024 1 65.9999 1C65.9974 1 65.9963 0.999383 65.9974 0.999883C65.9982 1.00019 66.0059 1.00351 66.0184 1.01677L67.473 -0.355887C66.6626 -1.21471 65.3372 -1.2147 64.5268 -0.355886L65.9814 1.01677ZM37.0559 31.6687L65.9814 1.01677L64.5268 -0.355886L35.6013 30.2961L37.0559 31.6687ZM37.0744 32C37.0663 32 37.0702 32.0005 37.0684 31.9991C37.0601 31.9926 37.0365 31.9689 37.0183 31.9197C36.9788 31.8128 37.0055 31.7221 37.0559 31.6687L35.6013 30.2961C34.9592 30.9765 34.8768 31.8946 35.1424 32.6131C35.4088 33.3338 36.0904 34 37.0744 34V32ZM44.9999 32H37.0744V34H44.9999V32ZM45.9999 59V33H43.9999V59H45.9999ZM45.9999 59H43.9999C43.9999 60.1046 44.8953 61 45.9999 61V59ZM85.9999 59H45.9999V61H85.9999V59ZM85.9999 59V61C87.1045 61 87.9999 60.1046 87.9999 59H85.9999ZM85.9999 33V59H87.9999V33H85.9999ZM94.9254 32H86.9999V34H94.9254V32ZM94.9439 31.6687C94.9943 31.7221 95.021 31.8128 94.9815 31.9197C94.9633 31.9689 94.9397 31.9926 94.9314 31.9991C94.9296 32.0005 94.9335 32 94.9254 32V34C95.9094 34 96.591 33.3338 96.8574 32.6131C97.123 31.8946 97.0406 30.9765 96.3985 30.2961L94.9439 31.6687ZM66.0184 1.01677L94.9439 31.6687L96.3985 30.2961L67.473 -0.355887L66.0184 1.01677Z"/>
</mask>
<path d="M44.9999 33H45.9999V32H44.9999V33ZM86.9999 33V32H85.9999V33H86.9999ZM65.9814 1.01677C65.9939 1.00351 66.0017 1.00019 66.0024 0.999883C66.0035 0.999383 66.0024 1 65.9999 1C65.9974 1 65.9963 0.999383 65.9974 0.999883C65.9982 1.00019 66.0059 1.00351 66.0184 1.01677L67.473 -0.355887C66.6626 -1.21471 65.3372 -1.2147 64.5268 -0.355886L65.9814 1.01677ZM37.0559 31.6687L65.9814 1.01677L64.5268 -0.355886L35.6013 30.2961L37.0559 31.6687ZM37.0744 32C37.0663 32 37.0702 32.0005 37.0684 31.9991C37.0601 31.9926 37.0365 31.9689 37.0183 31.9197C36.9788 31.8128 37.0055 31.7221 37.0559 31.6687L35.6013 30.2961C34.9592 30.9765 34.8768 31.8946 35.1424 32.6131C35.4088 33.3338 36.0904 34 37.0744 34V32ZM44.9999 32H37.0744V34H44.9999V32ZM45.9999 59V33H43.9999V59H45.9999ZM45.9999 59H43.9999C43.9999 60.1046 44.8953 61 45.9999 61V59ZM85.9999 59H45.9999V61H85.9999V59ZM85.9999 59V61C87.1045 61 87.9999 60.1046 87.9999 59H85.9999ZM85.9999 33V59H87.9999V33H85.9999ZM94.9254 32H86.9999V34H94.9254V32ZM94.9439 31.6687C94.9943 31.7221 95.021 31.8128 94.9815 31.9197C94.9633 31.9689 94.9397 31.9926 94.9314 31.9991C94.9296 32.0005 94.9335 32 94.9254 32V34C95.9094 34 96.591 33.3338 96.8574 32.6131C97.123 31.8946 97.0406 30.9765 96.3985 30.2961L94.9439 31.6687ZM66.0184 1.01677L94.9439 31.6687L96.3985 30.2961L67.473 -0.355887L66.0184 1.01677Z" fill="#FFF5EA"/>
<path d="M45.9999 59H46.4999V58.5H45.9999V59ZM85.9999 59V58.5H85.4999V59H85.9999ZM64.911 0.694088L65.6383 1.38042L66.3246 0.653124L65.5973 -0.0332051L64.911 0.694088ZM66.4026 -0.0332051L65.6753 0.653124L66.3616 1.38042L67.0889 0.694088L66.4026 -0.0332051ZM35.9855 31.3461L36.7128 32.0324L37.3991 31.305L36.6718 30.6187L35.9855 31.3461ZM95.3281 30.6187L94.6008 31.305L95.2871 32.0324L96.0144 31.3461L95.3281 30.6187ZM66.3616 1.38042L67.8162 0.00776086L67.1299 -0.719534L65.6753 0.653123L66.3616 1.38042ZM64.1837 0.007762L65.6383 1.38042L66.3246 0.653123L64.87 -0.719533L64.1837 0.007762ZM35.2582 30.6598L36.7128 32.0324L37.3991 31.305L35.9445 29.9324L35.2582 30.6598ZM37.5744 34V32H36.5744V34H37.5744ZM43.9999 59.5H45.9999V58.5H43.9999V59.5ZM46.4999 61V59H45.4999V61H46.4999ZM86.4999 61V59H85.4999V61H86.4999ZM87.9999 58.5H85.9999V59.5H87.9999V58.5ZM95.4254 34V32H94.4254V34H95.4254ZM96.0554 29.9324L94.6008 31.305L95.2871 32.0324L96.7417 30.6598L96.0554 29.9324ZM65.9814 1.01677L66.7087 1.7031L66.7091 1.70272L65.9814 1.01677ZM66.0184 1.01677L65.2908 1.70272L65.2911 1.7031L66.0184 1.01677ZM37.0559 31.6687L37.7832 32.3551L37.7832 32.355L37.0559 31.6687ZM44.9999 33H43.9999V34H44.9999V33ZM45.9999 32H46.9999V31H45.9999V32ZM86.9999 33V34H87.9999V33H86.9999ZM85.9999 32V31H84.9999V32H85.9999ZM94.9439 31.6687L94.2166 32.355L94.2167 32.3551L94.9439 31.6687ZM66.0024 0.999883L66.4041 1.91576L66.4162 1.91025L66.0024 0.999883ZM65.9974 0.999883L65.5836 1.91025L65.611 1.92271L65.6391 1.9335L65.9974 0.999883ZM67.473 -0.355887L66.7457 0.330419L66.7457 0.330441L67.473 -0.355887ZM64.5268 -0.355886L65.2541 0.330442L65.2541 0.330424L64.5268 -0.355886ZM35.6013 30.2961L36.3286 30.9824L36.3286 30.9824L35.6013 30.2961ZM37.0684 31.9991L36.4519 32.7864L36.4545 32.7885L37.0684 31.9991ZM37.0183 31.9197L36.0803 32.2663L36.0804 32.2666L37.0183 31.9197ZM35.1424 32.6131L36.0804 32.2664L36.0804 32.2664L35.1424 32.6131ZM44.9999 34V35H45.9999V34H44.9999ZM45.9999 59H44.9999V60H45.9999V59ZM43.9999 33V32H42.9999V33H43.9999ZM85.9999 59V60H86.9999V59H85.9999ZM87.9999 33H88.9999V32H87.9999V33ZM86.9999 34H85.9999V35H86.9999V34ZM94.9815 31.9197L95.9194 32.2666L95.9195 32.2663L94.9815 31.9197ZM94.9314 31.9991L95.5454 32.7885L95.548 32.7864L94.9314 31.9991ZM96.8574 32.6131L95.9195 32.2664L95.9195 32.2664L96.8574 32.6131ZM96.3985 30.2961L95.6712 30.9824L95.6712 30.9824L96.3985 30.2961ZM44.9999 34H45.9999V32H44.9999V34ZM46.9999 33V32H44.9999V33H46.9999ZM45.9999 31H44.9999V33H45.9999V31ZM43.9999 32V33H45.9999V32H43.9999ZM87.9999 33V32H85.9999V33H87.9999ZM86.9999 31H85.9999V33H86.9999V31ZM84.9999 32V33H86.9999V32H84.9999ZM85.9999 34H86.9999V32H85.9999V34ZM66.7091 1.70272C66.6725 1.74151 66.6267 1.78277 66.5706 1.82214C66.5426 1.84182 66.5127 1.86049 66.481 1.87785C66.4651 1.88653 66.4494 1.89455 66.434 1.90195C66.4175 1.90986 66.4038 1.91581 66.4041 1.91568L65.6008 0.0840868C65.6009 0.0840359 65.5868 0.0901553 65.5697 0.0983537C65.5536 0.106051 65.5371 0.114483 65.5202 0.123728C65.4865 0.142206 65.4537 0.162596 65.4221 0.184795C65.3588 0.229216 65.3028 0.278773 65.2538 0.330824L66.7091 1.70272ZM66.4162 1.91025C66.41 1.91309 66.4039 1.91575 66.4062 1.91472C66.4067 1.91452 66.4089 1.91356 66.4116 1.91233C66.414 1.91128 66.4202 1.90849 66.4281 1.90479C66.4335 1.90225 66.4529 1.8931 66.4772 1.88004C66.4891 1.87363 66.5131 1.86041 66.5423 1.84172C66.5589 1.83107 66.6351 1.78284 66.7154 1.7013C66.7529 1.66319 66.8438 1.56613 66.9131 1.41371C66.9884 1.24814 67.0715 0.931106 66.9119 0.582908C66.7653 0.263253 66.5073 0.127348 66.393 0.0789384C66.2701 0.0268647 66.1654 0.0118988 66.1194 0.00650099C66.0228 -0.00483218 65.9467 0.00107062 65.9269 0.00257782C65.8958 0.00494908 65.8712 0.00830816 65.8588 0.0101221C65.8337 0.0137775 65.8142 0.0176263 65.8089 0.018675C65.8012 0.020194 65.7952 0.0214743 65.7934 0.0218713C65.7812 0.0244773 65.797 0.0210833 65.803 0.0198672C65.8495 0.0103957 65.9174 4.76837e-07 65.9999 4.76837e-07V2C66.0849 2 66.1547 1.9893 66.2021 1.97964C66.2083 1.97838 66.2242 1.97495 66.2122 1.97753C66.2104 1.97792 66.2044 1.9792 66.1967 1.98071C66.1914 1.98176 66.172 1.9856 66.1469 1.98926C66.1345 1.99107 66.1099 1.99443 66.0788 1.9968C66.059 1.99831 65.9829 2.00421 65.8863 1.99288C65.8403 1.98748 65.7356 1.97251 65.6127 1.92044C65.4985 1.87203 65.2404 1.73612 65.0938 1.41647C64.9342 1.06827 65.0173 0.751239 65.0926 0.585668C65.1619 0.433255 65.2528 0.336194 65.2903 0.298085C65.3706 0.216546 65.4468 0.168318 65.4634 0.157664C65.4926 0.138978 65.5166 0.125766 65.5285 0.119359C65.5527 0.1063 65.5722 0.0971555 65.5776 0.0946243C65.5854 0.0909324 65.5916 0.0881529 65.594 0.0871156C65.5967 0.0858958 65.5988 0.0849545 65.5992 0.0847692C65.6014 0.0837988 65.5951 0.0865548 65.5886 0.0895169L66.4162 1.91025ZM65.9999 4.76837e-07C66.0824 4.76837e-07 66.1504 0.0103957 66.1969 0.0198672C66.2028 0.0210833 66.2186 0.0244773 66.2065 0.0218713C66.2046 0.0214743 66.1986 0.020194 66.191 0.018675C66.1856 0.0176263 66.1662 0.0137775 66.1411 0.0101221C66.1286 0.00830816 66.1041 0.00494908 66.073 0.00257782C66.0532 0.00107062 65.9771 -0.00483218 65.8805 0.00650099C65.8345 0.0118988 65.7297 0.0268647 65.6068 0.0789384C65.4926 0.127348 65.2346 0.263253 65.088 0.582908C64.9283 0.931106 65.0114 1.24814 65.0867 1.41371C65.1561 1.56613 65.2469 1.66319 65.2844 1.7013C65.3647 1.78284 65.4409 1.83107 65.4576 1.84172C65.4867 1.86041 65.5108 1.87363 65.5227 1.88004C65.5469 1.8931 65.5664 1.90225 65.5718 1.90479C65.5797 1.90849 65.5859 1.91128 65.5882 1.91233C65.591 1.91356 65.5932 1.91452 65.5936 1.91472C65.5959 1.91575 65.5899 1.91309 65.5836 1.91025L66.4112 0.0895169C66.4047 0.0865548 66.3984 0.0837988 66.4006 0.0847692C66.401 0.0849545 66.4032 0.0858958 66.4059 0.0871156C66.4082 0.0881529 66.4144 0.0909324 66.4223 0.0946243C66.4277 0.0971555 66.4471 0.1063 66.4714 0.119359C66.4832 0.125766 66.5073 0.138978 66.5364 0.157664C66.5531 0.168318 66.6293 0.216546 66.7096 0.298085C66.7471 0.336194 66.8379 0.433255 66.9073 0.585668C66.9826 0.751239 67.0657 1.06827 66.906 1.41647C66.7594 1.73612 66.5014 1.87203 66.3872 1.92044C66.2643 1.97251 66.1595 1.98748 66.1135 1.99288C66.0169 2.00421 65.9408 1.99831 65.921 1.9968C65.8899 1.99443 65.8654 1.99107 65.8529 1.98926C65.8278 1.9856 65.8084 1.98176 65.8031 1.98071C65.7955 1.9792 65.7895 1.97792 65.7877 1.97753C65.7756 1.97495 65.7916 1.97838 65.7978 1.97964C65.8452 1.9893 65.9149 2 65.9999 2V4.76837e-07ZM65.6391 1.9335C65.4723 1.86946 65.3589 1.77501 65.2908 1.70272L66.7461 0.330824C66.6529 0.232013 66.5242 0.130916 66.3557 0.0662674L65.6391 1.9335ZM68.2003 -1.04219C66.9953 -2.31928 65.0046 -2.31926 63.7995 -1.04219L65.2541 0.330424C65.6699 -0.110142 66.33 -0.110139 66.7457 0.330419L68.2003 -1.04219ZM37.7832 32.355L66.7087 1.7031L65.2541 0.330442L36.3286 30.9824L37.7832 32.355ZM63.7995 -1.04221L34.874 29.6098L36.3286 30.9824L65.2541 0.330442L63.7995 -1.04221ZM37.0744 31C37.0611 31 37.0494 31.0002 37.0392 31.0005C37.0265 31.0009 37.042 31.0005 37.0459 31.0004C37.0499 31.0003 37.0681 30.9998 37.0915 31.0003C37.1065 31.0007 37.1731 31.0019 37.2563 31.0178C37.3227 31.0304 37.5583 31.079 37.7696 31.2865C37.8842 31.399 37.9631 31.5305 38.0107 31.6636C38.0549 31.7873 38.0651 31.8932 38.0679 31.9543C38.0707 32.0137 38.0672 32.0603 38.0664 32.0713C38.0661 32.0754 38.0659 32.0787 38.0657 32.0807C38.0656 32.0817 38.0656 32.0825 38.0655 32.083C38.0655 32.0835 38.0655 32.0839 38.0654 32.084C38.0654 32.085 38.0658 32.0804 38.0661 32.0752C38.0681 32.0498 38.0721 31.9865 38.0646 31.9062C38.0477 31.7266 37.984 31.5676 37.8969 31.4389C37.8196 31.3247 37.735 31.2507 37.6824 31.2097L36.4545 32.7885C36.4023 32.7478 36.318 32.6741 36.2408 32.5602C36.1539 32.4317 36.0903 32.2729 36.0734 32.0935C36.0658 32.0132 36.0699 31.95 36.0718 31.9246C36.0722 31.9194 36.0726 31.9149 36.0725 31.9159C36.0725 31.916 36.0725 31.9164 36.0724 31.9169C36.0724 31.9174 36.0723 31.9182 36.0722 31.9192C36.0721 31.9212 36.0718 31.9245 36.0715 31.9286C36.0707 31.9397 36.0673 31.9862 36.07 32.0457C36.0728 32.1068 36.0831 32.2127 36.1273 32.3364C36.1748 32.4696 36.2538 32.6011 36.3684 32.7136C36.5797 32.9211 36.8154 32.9697 36.8818 32.9824C36.9651 32.9983 37.0318 32.9995 37.0469 32.9998C37.0704 33.0004 37.0888 32.9999 37.093 32.9998C37.0973 32.9997 37.1133 32.9992 37.1015 32.9996C37.0928 32.9998 37.0837 33 37.0744 33V31ZM37.685 31.2118C37.7661 31.2753 37.8223 31.3403 37.8606 31.3938C37.903 31.4531 37.9344 31.5138 37.9562 31.5728L36.0804 32.2666C36.1581 32.4767 36.2873 32.6575 36.4519 32.7864L37.685 31.2118ZM37.9563 31.5731C38.0401 31.7999 38.0098 32.115 37.7832 32.3551L36.3287 30.9823C36.0012 31.3292 35.9175 31.8257 36.0803 32.2663L37.9563 31.5731ZM34.874 29.6098C33.9341 30.6058 33.8269 31.9385 34.2045 32.9598L36.0804 32.2664C35.9267 31.8507 35.9843 31.3472 36.3286 30.9824L34.874 29.6098ZM34.2045 32.9598C34.5823 33.9819 35.5823 35 37.0744 35V33C36.5985 33 36.2354 32.6857 36.0804 32.2664L34.2045 32.9598ZM44.9999 31H37.0744V33H44.9999V31ZM37.0744 35H44.9999V33H37.0744V35ZM45.9999 34V32H43.9999V34H45.9999ZM46.9999 59V33H44.9999V59H46.9999ZM45.9999 32H43.9999V34H45.9999V32ZM42.9999 33V59H44.9999V33H42.9999ZM42.9999 59C42.9999 60.6569 44.343 62 45.9999 62V60C45.4476 60 44.9999 59.5523 44.9999 59H42.9999ZM85.9999 58H45.9999V60H85.9999V58ZM45.9999 62H85.9999V60H45.9999V62ZM85.9999 62C87.6568 62 88.9999 60.6569 88.9999 59H86.9999C86.9999 59.5523 86.5522 60 85.9999 60V62ZM84.9999 33V59H86.9999V33H84.9999ZM88.9999 59V33H86.9999V59H88.9999ZM87.9999 32H85.9999V34H87.9999V32ZM94.9254 31H86.9999V33H94.9254V31ZM85.9999 32V34H87.9999V32H85.9999ZM86.9999 35H94.9254V33H86.9999V35ZM94.2167 32.3551C93.99 32.1149 93.9597 31.7998 94.0435 31.5731L95.9195 32.2663C96.0823 31.8258 95.9986 31.3293 95.6712 30.9823L94.2167 32.3551ZM94.0436 31.5728C94.0654 31.5138 94.0969 31.4532 94.1392 31.3939C94.1775 31.3404 94.2337 31.2754 94.3149 31.2118L95.548 32.7864C95.7126 32.6575 95.8418 32.4766 95.9194 32.2666L94.0436 31.5728ZM94.3175 31.2097C94.2648 31.2507 94.1805 31.3245 94.1033 31.4384C94.0163 31.5667 93.9527 31.7251 93.9355 31.9038C93.9278 31.9837 93.9317 32.0467 93.9334 32.0716C93.9338 32.0766 93.9342 32.0812 93.9341 32.0799C93.9341 32.0799 93.9339 32.0783 93.9338 32.0764C93.9336 32.0744 93.9334 32.071 93.9331 32.0668C93.9323 32.0554 93.9291 32.0085 93.9322 31.9486C93.9354 31.887 93.9463 31.781 93.9913 31.6575C94.0397 31.5248 94.1193 31.3944 94.2336 31.2832C94.4442 31.0783 94.6779 31.0302 94.7442 31.0176C94.8271 31.0019 94.8934 31.0007 94.9084 31.0003C94.9317 30.9998 94.95 31.0003 94.9539 31.0004C94.9578 31.0005 94.9733 31.0009 94.9607 31.0005C94.9504 31.0002 94.9387 31 94.9254 31V33C94.9162 33 94.907 32.9998 94.8984 32.9996C94.8865 32.9992 94.9026 32.9997 94.9069 32.9998C94.9111 32.9999 94.9295 33.0004 94.9529 32.9998C94.968 32.9995 95.0344 32.9983 95.1174 32.9825C95.1837 32.9699 95.4175 32.9218 95.6281 32.7168C95.7425 32.6056 95.822 32.4753 95.8704 32.3425C95.9154 32.219 95.9264 32.113 95.9296 32.0514C95.9326 31.9915 95.9294 31.9446 95.9286 31.9331C95.9284 31.9289 95.9281 31.9255 95.9279 31.9235C95.9278 31.9216 95.9277 31.92 95.9277 31.92C95.9276 31.9187 95.9279 31.9232 95.9283 31.9283C95.9301 31.9531 95.934 32.016 95.9263 32.0958C95.909 32.2744 95.8455 32.4326 95.7587 32.5607C95.6817 32.6743 95.5976 32.7479 95.5454 32.7885L94.3175 31.2097ZM94.9254 35C96.4175 35 97.4176 33.9819 97.7954 32.9598L95.9195 32.2664C95.7645 32.6857 95.4013 33 94.9254 33V35ZM97.7954 32.9598C98.1729 31.9385 98.0657 30.6058 97.1258 29.6098L95.6712 30.9824C96.0155 31.3473 96.0731 31.8507 95.9195 32.2664L97.7954 32.9598ZM65.2911 1.7031L94.2166 32.355L95.6712 30.9824L66.7457 0.330442L65.2911 1.7031ZM97.1258 29.6098L68.2003 -1.04221L66.7457 0.330441L95.6712 30.9824L97.1258 29.6098Z" fill="#FFF5EA" mask="url(#path-3-inside-1_192_36)"/>
</g>
<path d="M28 5L2 30L28 55" stroke="#FFF5EA" stroke-width="4" stroke-linecap="round" stroke-linejoin="round"/>
</g>
<defs>
<clipPath id="clip0_192_36">
<rect width="96" height="60" fill="white"/>
</clipPath>
</defs>
</svg>
