<svg width="96" height="60" viewBox="0 0 96 60" fill="none" xmlns="http://www.w3.org/2000/svg">
<mask id="path-1-inside-1_537_192" fill="white">
<path fill-rule="evenodd" clip-rule="evenodd" d="M66.7458 0.330441C66.33 -0.110147 65.67 -0.110147 65.2542 0.330441L36.3287 30.9824C35.6362 31.7163 36.1107 33 37.0745 33H45V59C45 59.5523 45.4477 60 46 60H86C86.5523 60 87 59.5523 87 59V33H94.9255C95.8893 33 96.3638 31.7163 95.6713 30.9824L66.7458 0.330441Z"/>
</mask>
<path fill-rule="evenodd" clip-rule="evenodd" d="M66.7458 0.330441C66.33 -0.110147 65.67 -0.110147 65.2542 0.330441L36.3287 30.9824C35.6362 31.7163 36.1107 33 37.0745 33H45V59C45 59.5523 45.4477 60 46 60H86C86.5523 60 87 59.5523 87 59V33H94.9255C95.8893 33 96.3638 31.7163 95.6713 30.9824L66.7458 0.330441Z" fill="#8B8B8B"/>
<path d="M65.2542 0.330441L65.9815 1.01677L65.9815 1.01677L65.2542 0.330441ZM66.7458 0.330441L66.0185 1.01677L66.0185 1.01677L66.7458 0.330441ZM36.3287 30.9824L37.056 31.6687L37.056 31.6687L36.3287 30.9824ZM45 33H46V32H45V33ZM87 33V32H86V33H87ZM95.6713 30.9824L94.944 31.6687L94.944 31.6687L95.6713 30.9824ZM65.9815 1.01677C65.994 1.00351 66.0018 1.00019 66.0025 0.999883C66.0036 0.999383 66.0025 1 66 1C65.9975 1 65.9964 0.999383 65.9975 0.999883C65.9983 1.00019 66.006 1.00351 66.0185 1.01677L67.4731 -0.355887C66.6627 -1.21471 65.3373 -1.2147 64.5269 -0.355886L65.9815 1.01677ZM37.056 31.6687L65.9815 1.01677L64.5269 -0.355887L35.6014 30.2961L37.056 31.6687ZM37.0745 32C37.0664 32 37.0703 32.0005 37.0685 31.9991C37.0602 31.9926 37.0366 31.9689 37.0184 31.9197C36.9789 31.8128 37.0056 31.7221 37.056 31.6687L35.6014 30.2961C34.9593 30.9765 34.8769 31.8946 35.1425 32.6131C35.4089 33.3338 36.0905 34 37.0745 34V32ZM45 32H37.0745V34H45V32ZM46 59V33H44V59H46ZM46 59H46H44C44 60.1046 44.8954 61 46 61V59ZM86 59H46V61H86V59ZM86 59V61C87.1046 61 88 60.1046 88 59H86ZM86 33V59H88V33H86ZM94.9255 32H87V34H94.9255V32ZM94.944 31.6687C94.9944 31.7221 95.0211 31.8128 94.9816 31.9197C94.9634 31.9689 94.9398 31.9926 94.9315 31.9991C94.9297 32.0005 94.9336 32 94.9255 32V34C95.9095 34 96.5911 33.3338 96.8575 32.6131C97.1231 31.8946 97.0407 30.9765 96.3986 30.2961L94.944 31.6687ZM66.0185 1.01677L94.944 31.6687L96.3986 30.2961L67.4731 -0.355887L66.0185 1.01677Z" fill="#8B8B8B" mask="url(#path-1-inside-1_537_192)"/>
<path d="M28 5L2 30L28 55" stroke="#8B8B8B" stroke-width="4" stroke-linecap="round" stroke-linejoin="round"/>
</svg>
