<svg width="60" height="43" viewBox="0 0 60 43" fill="none" xmlns="http://www.w3.org/2000/svg">
<path d="M20.265 19.855L0 4.285V21.79V39.16L20.52 20.05L20.265 19.855Z" fill="white"/>
<path d="M60.0001 39.16V4.285L39.4951 20.05L60.0001 39.16Z" fill="white"/>
<path d="M45.9149 28.195L38.2199 21.04L35.3399 23.245C35.2199 23.365 35.0849 23.47 34.9349 23.56L32.5349 25.405C31.9799 25.825 31.2299 26.08 30.4349 26.155H30.3599L29.9999 26.185H29.6249C28.8149 26.11 28.0349 25.84 27.4799 25.42L25.0649 23.56C24.9149 23.47 24.7949 23.38 24.6899 23.275L21.7799 21.055L14.0849 28.225L0.374906 40.975C0.119906 41.215 -9.42607e-05 41.5 0.0299057 41.8C0.0449057 42.43 0.644906 43 1.54491 43H58.4699C59.3849 43 59.9699 42.415 59.9849 41.8C59.9999 41.515 59.8949 41.23 59.6399 40.975L45.9149 28.195Z" fill="white"/>
<path d="M14.085 13.18L21.63 18.985L22.905 19.975L26.13 22.435C26.13 22.435 26.265 22.555 26.355 22.6L28.815 24.505C29.1 24.715 29.475 24.835 29.865 24.835C29.94 24.835 30.015 24.835 30.09 24.835C30.48 24.835 30.87 24.7 31.14 24.505L33.6 22.615H33.615C33.705 22.555 33.78 22.48 33.84 22.42L37.05 19.96L38.325 18.97L45.87 13.165L59.595 2.62C59.85 2.425 59.97 2.185 59.97 1.96C59.97 1.51 59.505 1.075 58.77 0.970001H1.2C0.465 1.075 0 1.495 0 1.96C0 2.2 0.105 2.425 0.375 2.62L14.1 13.165L14.085 13.18Z" fill="white"/>
</svg>
